<?xml version="1.0" encoding="UTF-8" standalone="no"?>
<!DOCTYPE svg PUBLIC "-//W3C//DTD SVG 1.1//EN"
 "http://www.w3.org/Graphics/SVG/1.1/DTD/svg11.dtd">
<!-- Generated by graphviz version 2.30.1 (20130318.1259)
 -->
<!-- Title: g Pages: 1 -->
<svg width="504pt" height="169pt"
 viewBox="0.00 0.00 504.00 168.68" xmlns="http://www.w3.org/2000/svg" xmlns:xlink="http://www.w3.org/1999/xlink">
<g id="graph0" class="graph" transform="scale(0.86951 0.86951) rotate(0) translate(4 190)">
<title>g</title>
<polygon fill="white" stroke="white" points="-4,5 -4,-190 576.637,-190 576.637,5 -4,5"/>
<!-- N1 -->
<g id="node1" class="node"><title>N1</title>
<path fill="#ffffff" stroke="#2e3436" stroke-width="1.5" d="M11.3711,-140.694C11.3711,-140.694 262.629,-140.694 262.629,-140.694 268.629,-140.694 274.629,-146.694 274.629,-152.694 274.629,-152.694 274.629,-167.306 274.629,-167.306 274.629,-173.306 268.629,-179.306 262.629,-179.306 262.629,-179.306 11.3711,-179.306 11.3711,-179.306 5.37109,-179.306 -0.628906,-173.306 -0.628906,-167.306 -0.628906,-167.306 -0.628906,-152.694 -0.628906,-152.694 -0.628906,-146.694 5.37109,-140.694 11.3711,-140.694"/>
<text text-anchor="middle" x="137" y="-167.306" font-family="FreeSans" font-size="8.00" fill="#1c2021">Node[1]</text>
<polyline fill="none" stroke="#2e3436" stroke-width="1.5" points="-0.628906,-160 274.629,-160 "/>
<text text-anchor="start" x="7.37109" y="-148" font-family="FreeSans" font-size="8.00" fill="#1c2021">value = &#39;urn:com.tinkerpop.blueprints.pgm.oupls.sail:namespaces&#39;</text>
</g>
<!-- N2 -->
<g id="node2" class="node"><title>N2</title>
<path fill="#ffffff" stroke="#2e3436" stroke-width="1.5" d="M315.658,-135.041C315.658,-135.041 424.342,-135.041 424.342,-135.041 430.342,-135.041 436.342,-141.041 436.342,-147.041 436.342,-147.041 436.342,-172.959 436.342,-172.959 436.342,-178.959 430.342,-184.959 424.342,-184.959 424.342,-184.959 315.658,-184.959 315.658,-184.959 309.658,-184.959 303.658,-178.959 303.658,-172.959 303.658,-172.959 303.658,-147.041 303.658,-147.041 303.658,-141.041 309.658,-135.041 315.658,-135.041"/>
<text text-anchor="middle" x="370" y="-172.959" font-family="FreeSans" font-size="8.00" fill="#1c2021">Node[2]</text>
<polyline fill="none" stroke="#2e3436" stroke-width="1.5" points="303.658,-165.653 436.342,-165.653 "/>
<text text-anchor="start" x="311.658" y="-153.653" font-family="FreeSans" font-size="8.00" fill="#1c2021">value = &#39;http://neo4j.org#joe&#39;</text>
<text text-anchor="start" x="311.658" y="-142.347" font-family="FreeSans" font-size="8.00" fill="#1c2021">kind = &#39;uri&#39;</text>
</g>
<!-- N3 -->
<g id="node3" class="node"><title>N3</title>
<path fill="#ffffff" stroke="#2e3436" stroke-width="1.5" d="M313.467,-1.04062C313.467,-1.04062 426.533,-1.04062 426.533,-1.04062 432.533,-1.04062 438.533,-7.04062 438.533,-13.0406 438.533,-13.0406 438.533,-38.9594 438.533,-38.9594 438.533,-44.9594 432.533,-50.9594 426.533,-50.9594 426.533,-50.9594 313.467,-50.9594 313.467,-50.9594 307.467,-50.9594 301.467,-44.9594 301.467,-38.9594 301.467,-38.9594 301.467,-13.0406 301.467,-13.0406 301.467,-7.04062 307.467,-1.04062 313.467,-1.04062"/>
<text text-anchor="middle" x="370" y="-38.9594" font-family="FreeSans" font-size="8.00" fill="#1c2021">Node[3]</text>
<polyline fill="none" stroke="#2e3436" stroke-width="1.5" points="301.467,-31.6531 438.533,-31.6531 "/>
<text text-anchor="start" x="309.467" y="-19.6531" font-family="FreeSans" font-size="8.00" fill="#1c2021">value = &#39;http://neo4j.org#sara&#39;</text>
<text text-anchor="start" x="309.467" y="-8.34688" font-family="FreeSans" font-size="8.00" fill="#1c2021">kind = &#39;uri&#39;</text>
</g>
<!-- N2&#45;&gt;N3 -->
<g id="edge1" class="edge"><title>N2&#45;&gt;N3</title>
<path fill="none" stroke="#2e3436" stroke-width="2" d="M370,-134.789C370,-113.391 370,-82.0372 370,-58.6553"/>
<polygon fill="#2e3436" stroke="#2e3436" points="370,-51.0573 373.375,-58.5573 370.5,-54.8073 370.5,-58.5573 370,-58.5573 369.5,-58.5574 369.5,-54.8074 366.625,-58.5574 370,-51.0573 370,-51.0573"/>
<text text-anchor="middle" x="470.818" y="-107.612" font-family="FreeSans" font-size="8.00" fill="#2e3436">http://neo4j.org#knows</text>
<text text-anchor="start" x="370" y="-96.3062" font-family="FreeSans" font-size="8.00" fill="#2e3436">cp = &#39;U http://neo4j.org U http://neo4j.org#knows&#39;</text>
<text text-anchor="start" x="370" y="-85" font-family="FreeSans" font-size="8.00" fill="#2e3436">c = &#39;U http://neo4j.org&#39;</text>
<text text-anchor="start" x="370" y="-73.6937" font-family="FreeSans" font-size="8.00" fill="#2e3436">p = &#39;U http://neo4j.org#knows&#39;</text>
</g>
</g>
</svg>
