<?xml version="1.0" encoding="UTF-8" standalone="no"?>
<!DOCTYPE svg PUBLIC "-//W3C//DTD SVG 1.1//EN"
 "http://www.w3.org/Graphics/SVG/1.1/DTD/svg11.dtd">
<!-- Generated by graphviz version 2.30.1 (20130318.1259)
 -->
<!-- Title: g Pages: 1 -->
<svg width="504pt" height="143pt"
 viewBox="0.00 0.00 504.00 142.92" xmlns="http://www.w3.org/2000/svg" xmlns:xlink="http://www.w3.org/1999/xlink">
<g id="graph0" class="graph" transform="scale(0.736682 0.736682) rotate(0) translate(4 190)">
<title>g</title>
<polygon fill="white" stroke="white" points="-4,5 -4,-190 681.148,-190 681.148,5 -4,5"/>
<!-- N1 -->
<g id="node1" class="node"><title>N1</title>
<path fill="#ffffff" stroke="#2e3436" stroke-width="1.5" d="M11.3711,-140.694C11.3711,-140.694 262.629,-140.694 262.629,-140.694 268.629,-140.694 274.629,-146.694 274.629,-152.694 274.629,-152.694 274.629,-167.306 274.629,-167.306 274.629,-173.306 268.629,-179.306 262.629,-179.306 262.629,-179.306 11.3711,-179.306 11.3711,-179.306 5.37109,-179.306 -0.628906,-173.306 -0.628906,-167.306 -0.628906,-167.306 -0.628906,-152.694 -0.628906,-152.694 -0.628906,-146.694 5.37109,-140.694 11.3711,-140.694"/>
<text text-anchor="middle" x="137" y="-167.306" font-family="FreeSans" font-size="8.00" fill="#1c2021">Node[1]</text>
<polyline fill="none" stroke="#2e3436" stroke-width="1.5" points="-0.628906,-160 274.629,-160 "/>
<text text-anchor="start" x="7.37109" y="-148" font-family="FreeSans" font-size="8.00" fill="#1c2021">value = &#39;urn:com.tinkerpop.blueprints.pgm.oupls.sail:namespaces&#39;</text>
</g>
<!-- N4 -->
<g id="node2" class="node"><title>N4</title>
<path fill="#ffffff" stroke="#2e3436" stroke-width="1.5" d="M315.658,-135.041C315.658,-135.041 424.342,-135.041 424.342,-135.041 430.342,-135.041 436.342,-141.041 436.342,-147.041 436.342,-147.041 436.342,-172.959 436.342,-172.959 436.342,-178.959 430.342,-184.959 424.342,-184.959 424.342,-184.959 315.658,-184.959 315.658,-184.959 309.658,-184.959 303.658,-178.959 303.658,-172.959 303.658,-172.959 303.658,-147.041 303.658,-147.041 303.658,-141.041 309.658,-135.041 315.658,-135.041"/>
<text text-anchor="middle" x="370" y="-172.959" font-family="FreeSans" font-size="8.00" fill="#1c2021">Node[4]</text>
<polyline fill="none" stroke="#2e3436" stroke-width="1.5" points="303.658,-165.653 436.342,-165.653 "/>
<text text-anchor="start" x="311.658" y="-153.653" font-family="FreeSans" font-size="8.00" fill="#1c2021">value = &#39;http://neo4j.org#joe&#39;</text>
<text text-anchor="start" x="311.658" y="-142.347" font-family="FreeSans" font-size="8.00" fill="#1c2021">kind = &#39;uri&#39;</text>
</g>
<!-- N5 -->
<g id="node3" class="node"><title>N5</title>
<path fill="#ffffff" stroke="#2e3436" stroke-width="1.5" d="M195.467,-1.04062C195.467,-1.04062 308.533,-1.04062 308.533,-1.04062 314.533,-1.04062 320.533,-7.04062 320.533,-13.0406 320.533,-13.0406 320.533,-38.9594 320.533,-38.9594 320.533,-44.9594 314.533,-50.9594 308.533,-50.9594 308.533,-50.9594 195.467,-50.9594 195.467,-50.9594 189.467,-50.9594 183.467,-44.9594 183.467,-38.9594 183.467,-38.9594 183.467,-13.0406 183.467,-13.0406 183.467,-7.04062 189.467,-1.04062 195.467,-1.04062"/>
<text text-anchor="middle" x="252" y="-38.9594" font-family="FreeSans" font-size="8.00" fill="#1c2021">Node[5]</text>
<polyline fill="none" stroke="#2e3436" stroke-width="1.5" points="183.467,-31.6531 320.533,-31.6531 "/>
<text text-anchor="start" x="191.467" y="-19.6531" font-family="FreeSans" font-size="8.00" fill="#1c2021">value = &#39;http://neo4j.org#sara&#39;</text>
<text text-anchor="start" x="191.467" y="-8.34688" font-family="FreeSans" font-size="8.00" fill="#1c2021">kind = &#39;uri&#39;</text>
</g>
<!-- N4&#45;&gt;N5 -->
<g id="edge1" class="edge"><title>N4&#45;&gt;N5</title>
<path fill="none" stroke="#2e3436" stroke-width="2" d="M303.409,-138.624C277.891,-130.156 253.966,-121.123 250.363,-116 238.851,-99.6295 239.405,-77.0468 242.763,-58.726"/>
<polygon fill="#2e3436" stroke="#2e3436" points="244.347,-51.1657 246.113,-59.1984 244.068,-54.9386 243.299,-58.6089 242.809,-58.5063 242.32,-58.4038 243.089,-54.7335 239.506,-57.8143 244.347,-51.1657 244.347,-51.1657"/>
<text text-anchor="middle" x="351.818" y="-107.612" font-family="FreeSans" font-size="8.00" fill="#2e3436">http://neo4j.org#knows</text>
<text text-anchor="start" x="251" y="-96.3062" font-family="FreeSans" font-size="8.00" fill="#2e3436">cp = &#39;U http://neo4j.org U http://neo4j.org#knows&#39;</text>
<text text-anchor="start" x="251" y="-85" font-family="FreeSans" font-size="8.00" fill="#2e3436">c = &#39;U http://neo4j.org&#39;</text>
<text text-anchor="start" x="251" y="-73.6937" font-family="FreeSans" font-size="8.00" fill="#2e3436">p = &#39;U http://neo4j.org#knows&#39;</text>
</g>
<!-- N6 -->
<g id="node4" class="node"><title>N6</title>
<path fill="#ffffff" stroke="#2e3436" stroke-width="1.5" d="M464.924,-1.04062C464.924,-1.04062 511.076,-1.04062 511.076,-1.04062 517.076,-1.04062 523.076,-7.04062 523.076,-13.0406 523.076,-13.0406 523.076,-38.9594 523.076,-38.9594 523.076,-44.9594 517.076,-50.9594 511.076,-50.9594 511.076,-50.9594 464.924,-50.9594 464.924,-50.9594 458.924,-50.9594 452.924,-44.9594 452.924,-38.9594 452.924,-38.9594 452.924,-13.0406 452.924,-13.0406 452.924,-7.04062 458.924,-1.04062 464.924,-1.04062"/>
<text text-anchor="middle" x="488" y="-38.9594" font-family="FreeSans" font-size="8.00" fill="#1c2021">Node[6]</text>
<polyline fill="none" stroke="#2e3436" stroke-width="1.5" points="452.924,-31.6531 523.076,-31.6531 "/>
<text text-anchor="start" x="460.924" y="-19.6531" font-family="FreeSans" font-size="8.00" fill="#1c2021">value = &#39;joe&#39;</text>
<text text-anchor="start" x="460.924" y="-8.34688" font-family="FreeSans" font-size="8.00" fill="#1c2021">kind = &#39;literal&#39;</text>
</g>
<!-- N4&#45;&gt;N6 -->
<g id="edge2" class="edge"><title>N4&#45;&gt;N6</title>
<path fill="none" stroke="#4e9a06" stroke-width="2" d="M431.561,-134.996C440.212,-129.697 448.392,-123.402 455,-116 469.308,-99.9723 477.601,-77.1863 482.296,-58.6828"/>
<polygon fill="#4e9a06" stroke="#4e9a06" points="484.094,-51.047 485.66,-59.1211 483.721,-54.8118 482.861,-58.4619 482.374,-58.3473 481.888,-58.2326 482.748,-54.5825 479.089,-57.5735 484.094,-51.047 484.094,-51.047"/>
<text text-anchor="middle" x="577.074" y="-107.612" font-family="FreeSans" font-size="8.00" fill="#4e9a06">http://neo4j.org#name</text>
<text text-anchor="start" x="478" y="-96.3062" font-family="FreeSans" font-size="8.00" fill="#4e9a06">cp = &#39;U http://neo4j.org U http://neo4j.org#name&#39;</text>
<text text-anchor="start" x="478" y="-85" font-family="FreeSans" font-size="8.00" fill="#4e9a06">c = &#39;U http://neo4j.org&#39;</text>
<text text-anchor="start" x="478" y="-73.6937" font-family="FreeSans" font-size="8.00" fill="#4e9a06">p = &#39;U http://neo4j.org#name&#39;</text>
</g>
</g>
</svg>
